<mxfile host="app.diagrams.net" agent="Mozilla/5.0 (Macintosh; Intel Mac OS X 10_15_7) AppleWebKit/537.36 (KHTML, like Gecko) Chrome/133.0.0.0 Safari/537.36" version="26.0.12">
  <diagram name="Page-1" id="wXNHFeC1QUHLHXNkjk2t">
    <mxGraphModel dx="869" dy="824" grid="0" gridSize="10" guides="1" tooltips="1" connect="1" arrows="1" fold="1" page="1" pageScale="1" pageWidth="827" pageHeight="1169" math="0" shadow="0">
      <root>
        <mxCell id="0" />
        <mxCell id="1" parent="0" />
        <mxCell id="lNSn5oNDOIyYraQbqirO-1" value="&lt;u&gt;Customer UI&lt;/u&gt;&lt;div&gt;- Submit Order Application&lt;/div&gt;" style="rounded=0;whiteSpace=wrap;html=1;" vertex="1" parent="1">
          <mxGeometry x="269" y="97" width="216" height="60" as="geometry" />
        </mxCell>
        <mxCell id="lNSn5oNDOIyYraQbqirO-2" value="Temporal Manager" style="rounded=0;whiteSpace=wrap;html=1;fillColor=light-dark(#FFF4C3,var(--ge-dark-color, #121212));strokeColor=light-dark(#FFD966,#FFFFFF);" vertex="1" parent="1">
          <mxGeometry x="266" y="244" width="222" height="77" as="geometry" />
        </mxCell>
        <mxCell id="lNSn5oNDOIyYraQbqirO-3" value="Order" style="rounded=0;whiteSpace=wrap;html=1;fillColor=light-dark(#FFF4C3,#FFFFFF);strokeColor=light-dark(#FFD966,#FFFFFF);" vertex="1" parent="1">
          <mxGeometry x="90" y="406" width="120" height="60" as="geometry" />
        </mxCell>
        <mxCell id="lNSn5oNDOIyYraQbqirO-4" value="Tracking" style="rounded=0;whiteSpace=wrap;html=1;fillColor=light-dark(#FFF4C3,var(--ge-dark-color, #121212));strokeColor=light-dark(#FFD966,#FFFFFF);" vertex="1" parent="1">
          <mxGeometry x="240" y="406" width="120" height="60" as="geometry" />
        </mxCell>
        <mxCell id="lNSn5oNDOIyYraQbqirO-5" value="Driver" style="rounded=0;whiteSpace=wrap;html=1;fillColor=light-dark(#FFF4C3,var(--ge-dark-color, #121212));strokeColor=light-dark(#FFD966,#FFFFFF);" vertex="1" parent="1">
          <mxGeometry x="395" y="404" width="120" height="60" as="geometry" />
        </mxCell>
        <mxCell id="lNSn5oNDOIyYraQbqirO-6" value="Notification" style="rounded=0;whiteSpace=wrap;html=1;strokeColor=light-dark(#FFD966,#FFFFFF);fillColor=light-dark(#FFF4C3,var(--ge-dark-color, #121212));" vertex="1" parent="1">
          <mxGeometry x="550" y="404" width="120" height="60" as="geometry" />
        </mxCell>
        <mxCell id="lNSn5oNDOIyYraQbqirO-7" value="" style="endArrow=classic;startArrow=classic;html=1;rounded=0;exitX=0.5;exitY=0;exitDx=0;exitDy=0;entryX=0.5;entryY=1;entryDx=0;entryDy=0;" edge="1" parent="1" source="lNSn5oNDOIyYraQbqirO-2" target="lNSn5oNDOIyYraQbqirO-1">
          <mxGeometry width="50" height="50" relative="1" as="geometry">
            <mxPoint x="349" y="366" as="sourcePoint" />
            <mxPoint x="346" y="161" as="targetPoint" />
          </mxGeometry>
        </mxCell>
        <mxCell id="lNSn5oNDOIyYraQbqirO-8" value="1. Send Order Application&lt;div&gt;4. Application successfully submitted&lt;/div&gt;" style="text;html=1;align=center;verticalAlign=middle;whiteSpace=wrap;rounded=0;" vertex="1" parent="1">
          <mxGeometry x="488" y="178" width="239" height="30" as="geometry" />
        </mxCell>
        <mxCell id="lNSn5oNDOIyYraQbqirO-10" value="" style="endArrow=classic;startArrow=classic;html=1;rounded=0;entryX=0.5;entryY=0;entryDx=0;entryDy=0;" edge="1" parent="1" source="lNSn5oNDOIyYraQbqirO-3" target="lNSn5oNDOIyYraQbqirO-6">
          <mxGeometry width="50" height="50" relative="1" as="geometry">
            <mxPoint x="140" y="346" as="sourcePoint" />
            <mxPoint x="610" y="361" as="targetPoint" />
            <Array as="points">
              <mxPoint x="150" y="362" />
              <mxPoint x="610" y="358" />
            </Array>
          </mxGeometry>
        </mxCell>
        <mxCell id="lNSn5oNDOIyYraQbqirO-12" value="2. Create an order record&lt;div&gt;3. Successfully created order response&amp;nbsp;&lt;/div&gt;" style="text;html=1;align=center;verticalAlign=middle;whiteSpace=wrap;rounded=0;" vertex="1" parent="1">
          <mxGeometry x="40" y="488" width="208" height="58" as="geometry" />
        </mxCell>
        <mxCell id="lNSn5oNDOIyYraQbqirO-13" value="5. Assign driver to order&lt;div&gt;6. Assigned driver info&lt;br&gt;&lt;div&gt;&lt;br&gt;&lt;/div&gt;&lt;/div&gt;" style="text;html=1;align=center;verticalAlign=middle;whiteSpace=wrap;rounded=0;" vertex="1" parent="1">
          <mxGeometry x="376" y="502" width="174" height="30" as="geometry" />
        </mxCell>
        <mxCell id="lNSn5oNDOIyYraQbqirO-15" value="" style="endArrow=classic;html=1;rounded=0;entryX=0.5;entryY=1;entryDx=0;entryDy=0;" edge="1" parent="1" target="lNSn5oNDOIyYraQbqirO-2">
          <mxGeometry width="50" height="50" relative="1" as="geometry">
            <mxPoint x="377" y="359" as="sourcePoint" />
            <mxPoint x="379" y="304" as="targetPoint" />
          </mxGeometry>
        </mxCell>
        <mxCell id="lNSn5oNDOIyYraQbqirO-17" value="" style="endArrow=classic;html=1;rounded=0;" edge="1" parent="1" target="lNSn5oNDOIyYraQbqirO-4">
          <mxGeometry width="50" height="50" relative="1" as="geometry">
            <mxPoint x="300" y="359" as="sourcePoint" />
            <mxPoint x="379" y="304" as="targetPoint" />
          </mxGeometry>
        </mxCell>
        <mxCell id="lNSn5oNDOIyYraQbqirO-18" value="" style="endArrow=classic;html=1;rounded=0;" edge="1" parent="1">
          <mxGeometry width="50" height="50" relative="1" as="geometry">
            <mxPoint x="454.38" y="359" as="sourcePoint" />
            <mxPoint x="454.38" y="406" as="targetPoint" />
          </mxGeometry>
        </mxCell>
        <mxCell id="lNSn5oNDOIyYraQbqirO-19" value="7. Notify driver on order assignment&lt;div&gt;&lt;div&gt;&lt;br&gt;&lt;/div&gt;&lt;/div&gt;" style="text;html=1;align=center;verticalAlign=middle;whiteSpace=wrap;rounded=0;" vertex="1" parent="1">
          <mxGeometry x="547" y="495" width="197" height="30" as="geometry" />
        </mxCell>
        <mxCell id="lNSn5oNDOIyYraQbqirO-20" value="8. Record order status as Driver assigned&lt;div&gt;&lt;div&gt;&lt;br&gt;&lt;/div&gt;&lt;/div&gt;" style="text;html=1;align=center;verticalAlign=middle;whiteSpace=wrap;rounded=0;" vertex="1" parent="1">
          <mxGeometry x="221" y="502" width="174" height="30" as="geometry" />
        </mxCell>
      </root>
    </mxGraphModel>
  </diagram>
</mxfile>
